<svg width="131" height="126" viewBox="0 0 131 126" fill="none" xmlns="http://www.w3.org/2000/svg">
<path d="M71.8867 4.96816L86.4516 34.2374C87.5246 36.358 89.5726 37.8306 91.9346 38.1578L124.65 42.9226C126.561 43.1909 128.294 44.1989 129.466 45.7369C130.624 47.2554 131.121 49.1796 130.84 51.0711C130.611 52.6419 129.871 54.0949 128.739 55.2075L105.034 78.187C103.3 79.7905 102.515 82.1664 102.934 84.4898L108.77 116.796C109.392 120.697 106.807 124.375 102.934 125.115C101.337 125.37 99.7013 125.102 98.2618 124.368L69.0797 109.164C66.9139 108.071 64.3556 108.071 62.1898 109.164L33.0078 124.368C29.4221 126.273 24.9794 124.977 22.9838 121.443C22.2444 120.036 21.9827 118.432 22.2248 116.868L28.0612 84.5553C28.4799 82.2384 27.6882 79.8494 25.9609 78.2459L2.25532 55.2795C-0.564747 52.5568 -0.649807 48.0735 2.06557 45.2526C2.12446 45.1937 2.18989 45.1282 2.25532 45.0628C3.38072 43.9174 4.85946 43.1909 6.45597 43.0011L39.1713 38.2298C41.5268 37.896 43.5748 36.4365 44.6544 34.3028L58.6958 4.96816C59.9456 2.45488 62.5366 0.890629 65.3502 0.956078H66.2269C68.6675 1.2506 70.794 2.7625 71.8867 4.96816Z" fill="url(#paint0_linear_1049_803)"/>
<defs>
<linearGradient id="paint0_linear_1049_803" x1="28.8667" y1="18.6166" x2="94.2834" y2="125.9" gradientUnits="userSpaceOnUse">
<stop stop-color="#CD7F32"/>
<stop offset="1" stop-color="#AB5B0B"/>
</linearGradient>
</defs>
</svg>
