<svg width="131" height="125" viewBox="0 0 131 125" fill="none" xmlns="http://www.w3.org/2000/svg">
<path d="M71.8867 4.36831L86.4516 33.6375C87.5246 35.7581 89.5726 37.2307 91.9346 37.558L124.65 42.3227C126.561 42.5911 128.294 43.599 129.466 45.1371C130.624 46.6555 131.121 48.5797 130.84 50.4712C130.611 52.042 129.871 53.495 128.739 54.6077L105.034 77.5872C103.3 79.1907 102.515 81.5665 102.934 83.89L108.77 116.196C109.392 120.097 106.807 123.775 102.934 124.515C101.337 124.77 99.7013 124.502 98.2618 123.769L69.0797 108.565C66.9139 107.472 64.3556 107.472 62.1898 108.565L33.0078 123.769C29.4221 125.673 24.9794 124.377 22.9838 120.843C22.2444 119.436 21.9827 117.832 22.2248 116.268L28.0612 83.9554C28.4799 81.6385 27.6882 79.2496 25.9609 77.6461L2.25532 54.6797C-0.564747 51.957 -0.649807 47.4736 2.06557 44.6527C2.12446 44.5938 2.18989 44.5284 2.25532 44.4629C3.38072 43.3176 4.85946 42.5911 6.45597 42.4013L39.1713 37.63C41.5268 37.2962 43.5748 35.8366 44.6544 33.703L58.6958 4.36831C59.9456 1.85503 62.5366 0.290775 65.3502 0.356225H66.2269C68.6675 0.65075 70.794 2.16264 71.8867 4.36831Z" fill="url(#paint0_linear_1049_794)"/>
<defs>
<linearGradient id="paint0_linear_1049_794" x1="28.8667" y1="18.0167" x2="94.2834" y2="125.3" gradientUnits="userSpaceOnUse">
<stop stop-color="#F2C94C"/>
<stop offset="1" stop-color="#ECBA23"/>
</linearGradient>
</defs>
</svg>
