<svg width="131" height="125" viewBox="0 0 131 125" fill="none" xmlns="http://www.w3.org/2000/svg">
<path d="M71.8867 4.36806L86.4516 33.6373C87.5246 35.7579 89.5726 37.2305 91.9346 37.5577L124.65 42.3225C126.561 42.5908 128.294 43.5988 129.466 45.1368C130.624 46.6553 131.121 48.5795 130.84 50.471C130.611 52.0418 129.871 53.4948 128.739 54.6074L105.034 77.5869C103.3 79.1904 102.515 81.5663 102.934 83.8898L108.77 116.196C109.392 120.097 106.807 123.775 102.934 124.515C101.337 124.77 99.7013 124.501 98.2618 123.768L69.0797 108.564C66.9139 107.471 64.3556 107.471 62.1898 108.564L33.0078 123.768C29.4221 125.673 24.9794 124.377 22.9838 120.843C22.2444 119.436 21.9827 117.832 22.2248 116.268L28.0612 83.9552C28.4799 81.6383 27.6882 79.2494 25.9609 77.6458L2.25532 54.6794C-0.564747 51.9567 -0.649807 47.4734 2.06557 44.6525C2.12446 44.5936 2.18989 44.5282 2.25532 44.4627C3.38072 43.3173 4.85946 42.5908 6.45597 42.401L39.1713 37.6297C41.5268 37.2959 43.5748 35.8364 44.6544 33.7027L58.6958 4.36806C59.9456 1.85478 62.5366 0.290531 65.3502 0.355981H66.2269C68.6675 0.650506 70.794 2.1624 71.8867 4.36806" fill="url(#paint0_linear_1052_779)"/>
<defs>
<linearGradient id="paint0_linear_1052_779" x1="28.8667" y1="18.0165" x2="94.2834" y2="125.3" gradientUnits="userSpaceOnUse">
<stop stop-color="#3B92C2"/>
<stop offset="1" stop-color="#0052F0"/>
</linearGradient>
</defs>
</svg>
