<svg width="135" height="129" viewBox="0 0 135 129" fill="none" xmlns="http://www.w3.org/2000/svg">
<path d="M73.8866 6.36806L88.4515 35.6373C89.5246 37.7579 91.5725 39.2305 93.9346 39.5577L126.65 44.3225C128.561 44.5908 130.294 45.5988 131.466 47.1368C132.624 48.6553 133.121 50.5795 132.84 52.471C132.611 54.0418 131.871 55.4948 130.739 56.6074L107.034 79.5869C105.3 81.1904 104.515 83.5663 104.933 85.8898L110.77 118.196C111.391 122.097 108.807 125.775 104.933 126.515C103.337 126.77 101.701 126.501 100.262 125.768L71.0796 110.564C68.9139 109.471 66.3555 109.471 64.1898 110.564L35.0077 125.768C31.4221 127.673 26.9793 126.377 24.9837 122.843C24.2443 121.436 23.9826 119.832 24.2247 118.268L30.0611 85.9552C30.4799 83.6383 29.6882 81.2494 27.9608 79.6458L4.25526 56.6794C1.43519 53.9567 1.35013 49.4734 4.06551 46.6525C4.12439 46.5936 4.18982 46.5282 4.25526 46.4627C5.38066 45.3173 6.8594 44.5908 8.45591 44.401L41.1713 39.6297C43.5268 39.2959 45.5747 37.8364 46.6544 35.7027L60.6958 6.36806C61.9455 3.85478 64.5366 2.29053 67.3501 2.35598H68.2269C70.6674 2.65051 72.7939 4.1624 73.8866 6.36806" stroke="#267BD3" stroke-width="4"/>
</svg>
