<svg width="135" height="129" viewBox="0 0 135 129" fill="none" xmlns="http://www.w3.org/2000/svg">
<path d="M73.8866 6.36831L88.4515 35.6375C89.5246 37.7581 91.5725 39.2307 93.9346 39.558L126.65 44.3227C128.561 44.5911 130.294 45.599 131.466 47.1371C132.624 48.6555 133.121 50.5797 132.84 52.4712C132.611 54.042 131.871 55.495 130.739 56.6077L107.034 79.5872C105.3 81.1907 104.515 83.5665 104.933 85.89L110.77 118.196C111.391 122.097 108.807 125.775 104.933 126.515C103.337 126.77 101.701 126.502 100.262 125.769L71.0796 110.565C68.9139 109.472 66.3555 109.472 64.1898 110.565L35.0077 125.769C31.4221 127.673 26.9793 126.377 24.9837 122.843C24.2443 121.436 23.9826 119.832 24.2247 118.268L30.0611 85.9554C30.4799 83.6385 29.6882 81.2496 27.9608 79.6461L4.25526 56.6797C1.43519 53.957 1.35013 49.4736 4.06551 46.6527C4.12439 46.5938 4.18983 46.5284 4.25526 46.4629C5.38066 45.3176 6.8594 44.5911 8.45591 44.4013L41.1713 39.63C43.5268 39.2962 45.5747 37.8366 46.6544 35.703L60.6958 6.36831C61.9455 3.85503 64.5366 2.29078 67.3501 2.35622H68.2269C70.6674 2.65075 72.7939 4.16264 73.8866 6.36831" stroke="#B6B6B5" stroke-width="4"/>
</svg>
