<svg width="131" height="126" viewBox="0 0 131 126" fill="none" xmlns="http://www.w3.org/2000/svg">
<path d="M71.8867 4.86831L86.4516 34.1375C87.5246 36.2581 89.5726 37.7307 91.9346 38.058L124.65 42.8227C126.561 43.0911 128.294 44.099 129.466 45.6371C130.624 47.1555 131.121 49.0797 130.84 50.9712C130.611 52.542 129.871 53.995 128.739 55.1077L105.034 78.0872C103.3 79.6907 102.515 82.0665 102.934 84.39L108.77 116.696C109.392 120.597 106.807 124.275 102.934 125.015C101.337 125.27 99.7013 125.002 98.2618 124.269L69.0797 109.065C66.9139 107.972 64.3556 107.972 62.1898 109.065L33.0078 124.269C29.4221 126.173 24.9794 124.877 22.9838 121.343C22.2444 119.936 21.9827 118.332 22.2248 116.768L28.0612 84.4554C28.4799 82.1385 27.6882 79.7496 25.9609 78.1461L2.25532 55.1797C-0.564747 52.457 -0.649807 47.9736 2.06557 45.1527C2.12446 45.0938 2.18989 45.0284 2.25532 44.9629C3.38072 43.8176 4.85946 43.0911 6.45597 42.9013L39.1713 38.13C41.5268 37.7962 43.5748 36.3366 44.6544 34.203L58.6958 4.86831C59.9456 2.35503 62.5366 0.790775 65.3502 0.856225H66.2269C68.6675 1.15075 70.794 2.66264 71.8867 4.86831Z" fill="url(#paint0_linear_1049_799)"/>
<defs>
<linearGradient id="paint0_linear_1049_799" x1="28.8667" y1="18.5167" x2="94.2834" y2="125.8" gradientUnits="userSpaceOnUse">
<stop stop-color="#C0C0C0"/>
<stop offset="1" stop-color="#ACACAA"/>
</linearGradient>
</defs>
</svg>
